<svg width="72" height="72" viewBox="0 0 72 72" fill="none" xmlns="http://www.w3.org/2000/svg">
<path d="M65.3259 20.8733C71.8853 33.5522 69.5331 49.1187 59.3307 59.3307C53.0964 65.5554 44.8159 68.9785 36.0096 68.9785C28.7044 68.9785 21.5235 66.5211 15.7769 62.0558L14.7825 61.2813L13.8837 62.1705L4.05418 72L0 67.9458L9.62868 58.3076L9.82948 58.1163L53.1729 14.7729L51.7865 13.788C47.1586 10.4988 41.6988 8.749 35.9904 8.749C28.7139 8.749 21.8773 11.5888 16.7331 16.7331C8.8255 24.6406 6.57849 36.6119 10.9865 46.8143L6.68366 51.1171C0.124302 38.4382 2.47649 22.8717 12.6693 12.6693C18.9036 6.44462 27.1841 3.02151 35.9904 3.02151C43.2956 3.02151 50.4765 5.47888 56.2231 9.94422L57.2175 10.7187L58.1163 9.82948L67.9458 0L72 4.05418L62.1705 13.8837L60.851 15.2127L56.0223 20.0319L53.2398 22.8143L20.0319 56.0223L18.8271 57.2271L20.2135 58.212C24.8414 61.5012 30.3012 63.251 36.0096 63.251C43.2861 63.251 50.1227 60.4112 55.2669 55.2669C63.1745 47.3594 65.4215 35.388 61.0135 25.1857L65.3259 20.8733Z" fill="#5024FF"/>
</svg>
