<svg width="450" height="72" viewBox="0 0 450 72" fill="none" xmlns="http://www.w3.org/2000/svg">
<path d="M127.1 60.9C127.1 61.5667 126.767 61.9 126.1 61.9H100C99.3333 61.9 99 61.5667 99 60.9V11.1C99 10.4333 99.3333 10.1 100 10.1H126.1C126.767 10.1 127.1 10.4333 127.1 11.1V13C127.1 13.6667 126.767 14 126.1 14H104.8V32.9H122.9C123.567 32.9 123.9 33.2333 123.9 33.9V35.7C123.9 36.3667 123.567 36.7 122.9 36.7H104.8V58H126.1C126.767 58 127.1 58.3333 127.1 59V60.9Z" fill="black"/>
<path d="M183.502 60.9C183.502 61.5667 183.168 61.9 182.502 61.9H178.902C178.502 61.9 178.202 61.8333 178.002 61.7C177.802 61.5 177.568 61.2333 177.302 60.9L149.602 21.9C148.668 20.5667 147.802 19.2333 147.002 17.9C146.202 16.5 145.635 15.4333 145.302 14.7H145.102C145.168 15.5 145.235 16.5667 145.302 17.9C145.435 19.2333 145.502 20.8 145.502 22.6V60.9C145.502 61.5667 145.168 61.9 144.502 61.9H141.702C141.035 61.9 140.702 61.5667 140.702 60.9V11C140.702 10.4 141.035 10.1 141.702 10.1H146.502C147.102 10.1 147.602 10.4 148.002 11L174.702 48.4C175.502 49.5333 176.268 50.7333 177.002 52C177.735 53.2667 178.368 54.5333 178.902 55.8H179.102C179.035 55.2667 178.935 54.2333 178.802 52.7C178.735 51.1667 178.702 49.3333 178.702 47.2V11C178.702 10.4 179.035 10.1 179.702 10.1H182.502C183.168 10.1 183.502 10.4 183.502 11V60.9Z" fill="black"/>
<path d="M239.962 53.6C239.962 54.2 239.562 55.0333 238.762 56.1C237.962 57.1667 236.796 58.2333 235.262 59.3C233.796 60.3 231.996 61.1667 229.862 61.9C227.796 62.6333 225.496 63 222.962 63C218.762 63 215.129 62.2333 212.062 60.7C208.996 59.1667 206.462 57.1333 204.462 54.6C202.462 52.0667 200.962 49.1333 199.962 45.8C199.029 42.4667 198.562 39 198.562 35.4C198.562 32 199.062 28.7333 200.062 25.6C201.062 22.4 202.562 19.6 204.562 17.2C206.562 14.7333 209.029 12.7667 211.962 11.3C214.962 9.76667 218.396 9 222.262 9C225.329 9 227.962 9.43333 230.162 10.3C232.429 11.1 234.262 12.0667 235.662 13.2C237.129 14.3333 238.196 15.5 238.862 16.7C239.596 17.9 239.962 18.8333 239.962 19.5C239.962 20.4333 239.696 21.1333 239.162 21.6C238.629 22.0667 237.996 22.3 237.262 22.3C236.596 22.3 236.029 22.0667 235.562 21.6C235.096 21.1333 234.729 20.6333 234.462 20.1C234.196 19.5 233.796 18.8 233.262 18C232.729 17.1333 231.962 16.3 230.962 15.5C230.029 14.7 228.829 14.0333 227.362 13.5C225.896 12.9667 224.096 12.7 221.962 12.7C219.496 12.7 217.196 13.1667 215.062 14.1C212.996 15.0333 211.196 16.4333 209.662 18.3C208.196 20.1667 207.029 22.4667 206.162 25.2C205.296 27.8667 204.862 31 204.862 34.6C204.862 38.1333 205.296 41.4 206.162 44.4C207.096 47.3333 208.362 49.8667 209.962 52C211.629 54.1333 213.596 55.8 215.862 57C218.129 58.2 220.629 58.8 223.362 58.8C227.096 58.8 230.029 58.1667 232.162 56.9C234.362 55.5667 236.029 54.3 237.162 53.1C237.562 52.5667 238.062 52.3 238.662 52.3C239.529 52.3 239.962 52.7333 239.962 53.6Z" fill="black"/>
<path d="M259.895 60.9C259.895 61.5667 259.561 61.9 258.895 61.9H255.094C254.428 61.9 254.094 61.5667 254.094 60.9V11.1C254.094 10.4333 254.428 10.1 255.094 10.1H258.895C259.561 10.1 259.895 10.4333 259.895 11.1V60.9Z" fill="black"/>
<path d="M305.513 13C305.513 13.6667 305.18 14 304.513 14H283.413V32.9H301.413C302.08 32.9 302.413 33.2333 302.413 33.9V35.7C302.413 36.3667 302.08 36.7 301.413 36.7H283.413V60.9C283.413 61.5667 283.047 61.9 282.313 61.9H278.613C277.947 61.9 277.613 61.5667 277.613 60.9V11.1C277.613 10.4333 277.947 10.1 278.613 10.1H304.513C305.18 10.1 305.513 10.4333 305.513 11.1V13Z" fill="black"/>
<path d="M357.236 60.9C357.236 61.5667 356.903 61.9 356.236 61.9H352.436C351.769 61.9 351.436 61.5667 351.436 60.9V36.7H324.236V60.9C324.236 61.5667 323.903 61.9 323.236 61.9H319.436C318.769 61.9 318.436 61.5667 318.436 60.9V11.1C318.436 10.4333 318.769 10.1 319.436 10.1H323.236C323.903 10.1 324.236 10.4333 324.236 11.1V32.9H351.436V11.1C351.436 10.4333 351.769 10.1 352.436 10.1H356.236C356.903 10.1 357.236 10.4333 357.236 11.1V60.9Z" fill="black"/>
<path d="M402.393 60.9C402.393 61.5667 402.06 61.9 401.393 61.9H375.293C374.626 61.9 374.293 61.5667 374.293 60.9V11.1C374.293 10.4333 374.626 10.1 375.293 10.1H401.393C402.06 10.1 402.393 10.4333 402.393 11.1V13C402.393 13.6667 402.06 14 401.393 14H380.093V32.9H398.193C398.86 32.9 399.193 33.2333 399.193 33.9V35.7C399.193 36.3667 398.86 36.7 398.193 36.7H380.093V58H401.393C402.06 58 402.393 58.3333 402.393 59V60.9Z" fill="black"/>
<path d="M449.995 61C449.995 61.6 449.661 61.9 448.995 61.9H444.895C444.095 61.9 443.528 61.6 443.194 61L434.294 44.7C433.561 43.3 432.461 41.9 430.994 40.5C429.528 39.1 427.828 38.4 425.895 38.4H421.895V60.9C421.895 61.5667 421.561 61.9 420.895 61.9H417.195C416.528 61.9 416.195 61.5667 416.195 60.9V11.8C416.195 11.4667 416.228 11.2 416.294 11C416.428 10.8 416.728 10.6333 417.195 10.5C417.861 10.3 419.294 10.1 421.494 9.9C423.761 9.63333 426.428 9.5 429.495 9.5C435.961 9.5 440.661 10.8333 443.594 13.5C446.528 16.1667 447.994 19.6667 447.994 24C447.994 25.8 447.594 27.4667 446.794 29C446.061 30.5333 445.061 31.8667 443.794 33C442.528 34.1333 441.028 35.1 439.294 35.9C437.628 36.7 435.894 37.2667 434.094 37.6V37.8C435.028 38.2667 436.061 39.0333 437.194 40.1C438.395 41.1667 439.428 42.4333 440.294 43.9L449.594 60C449.861 60.4 449.995 60.7333 449.995 61ZM442.095 24.2C442.095 20.4667 441.094 17.6333 439.094 15.7C437.161 13.7667 433.994 12.8 429.594 12.8C427.661 12.8 426.061 12.8667 424.794 13C423.595 13.0667 422.628 13.1667 421.895 13.3V35.3C422.428 35.3667 423.128 35.4333 423.995 35.5C424.928 35.5 425.994 35.5 427.194 35.5C432.128 35.5 435.828 34.4667 438.294 32.4C440.828 30.3333 442.095 27.6 442.095 24.2Z" fill="black"/>
<path d="M65.3259 20.8733C71.8853 33.5522 69.5331 49.1187 59.3307 59.3307C53.0964 65.5554 44.8159 68.9785 36.0096 68.9785C28.7044 68.9785 21.5235 66.5211 15.7769 62.0558L14.7825 61.2813L13.8837 62.1705L4.05418 72L0 67.9458L9.62868 58.3076L9.82948 58.1163L53.1729 14.7729L51.7865 13.788C47.1586 10.4988 41.6988 8.749 35.9904 8.749C28.7139 8.749 21.8773 11.5888 16.7331 16.7331C8.8255 24.6406 6.57849 36.6119 10.9865 46.8143L6.68366 51.1171C0.124302 38.4382 2.47649 22.8717 12.6693 12.6693C18.9036 6.44462 27.1841 3.02151 35.9904 3.02151C43.2956 3.02151 50.4765 5.47888 56.2231 9.94422L57.2175 10.7187L58.1163 9.82948L67.9458 0L72 4.05418L62.1705 13.8837L60.851 15.2127L56.0223 20.0319L53.2398 22.8143L20.0319 56.0223L18.8271 57.2271L20.2135 58.212C24.8414 61.5012 30.3012 63.251 36.0096 63.251C43.2861 63.251 50.1227 60.4112 55.2669 55.2669C63.1745 47.3594 65.4215 35.388 61.0135 25.1857L65.3259 20.8733Z" fill="#5024FF"/>
</svg>
