<svg width="25" height="25" viewBox="0 0 25 25" fill="none" xmlns="http://www.w3.org/2000/svg">
<path d="M22.3283 7.39004C24.5703 11.7237 23.7664 17.0443 20.2792 20.5347C18.1483 22.6623 15.3181 23.8323 12.308 23.8323C9.81114 23.8323 7.35672 22.9924 5.39253 21.4662L5.05264 21.2014L4.74543 21.5054L1.38572 24.8651L0 23.4794L3.29108 20.185L3.35971 20.1197L18.1745 5.30492L17.7006 4.9683C16.1188 3.84404 14.2526 3.24596 12.3015 3.24596C9.8144 3.24596 7.47764 4.21661 5.71935 5.9749C3.01655 8.67771 2.24852 12.7695 3.75516 16.2567L2.28447 17.7274C0.0424865 13.3937 0.846464 8.07309 4.33037 4.58592C6.46123 2.45832 9.29149 1.28831 12.3015 1.28831C14.7984 1.28831 17.2528 2.12823 19.217 3.65448L19.5569 3.91921L19.8641 3.61526L23.2238 0.255554L24.6095 1.64127L21.2498 5.00098L20.7988 5.45526L19.1484 7.10243L18.1973 8.05348L6.84688 19.4039L6.43509 19.8157L6.90898 20.1524C8.49078 21.2766 10.3569 21.8747 12.308 21.8747C14.7951 21.8747 17.1319 20.904 18.8902 19.1458C21.593 16.4429 22.361 12.3512 20.8544 8.86399L22.3283 7.39004Z" fill="#5024FF"/>
</svg>
